<?xml version="1.0" standalone="no"?>
<!DOCTYPE svg PUBLIC "-//W3C//DTD SVG 20010904//EN"
 "http://www.w3.org/TR/2001/REC-SVG-20010904/DTD/svg10.dtd">
<svg version="1.0" xmlns="http://www.w3.org/2000/svg"
 width="500.000000pt" height="500.000000pt" viewBox="0 0 500.000000 500.000000"
 preserveAspectRatio="xMidYMid meet">
<metadata>
Created by potrace 1.14, written by Peter Selinger 2001-2017
</metadata>
<g transform="translate(0.000000,500.000000) scale(0.100000,-0.100000)"
fill="#000000" stroke="none">
<path d="M3727 4983 c4 -9 -1 -11 -13 -7 -15 5 -16 4 -4 -5 11 -7 20 -5 35 7
11 9 22 18 24 19 3 2 -7 2 -21 1 -17 -1 -24 -7 -21 -15z"/>
<path d="M4938 4988 c5 -7 21 -31 36 -52 l26 -39 0 52 0 51 -36 0 c-28 0 -34
-3 -26 -12z"/>
<path d="M3676 4953 c-6 -14 -5 -15 5 -6 7 7 10 15 7 18 -3 3 -9 -2 -12 -12z"/>
<path d="M2727 4830 c-9 -22 -29 -88 -43 -147 -27 -109 -32 -125 -77 -223 -32
-68 -33 -78 -17 -115 19 -44 21 -249 2 -298 -12 -31 -12 -45 -2 -81 9 -33 9
-56 -1 -105 -6 -34 -16 -64 -20 -67 -5 -3 -9 -13 -9 -23 0 -47 -56 -120 -92
-121 -10 0 -18 -4 -18 -9 0 -14 -75 -61 -98 -61 -11 0 -33 -11 -48 -25 -15
-14 -35 -25 -45 -25 -10 0 -21 -4 -24 -10 -3 -5 -18 -10 -33 -10 -18 0 -37
-10 -54 -30 -14 -16 -36 -30 -47 -30 -12 0 -21 -4 -21 -9 0 -16 -53 -61 -73
-61 -11 0 -29 -8 -39 -17 -20 -18 -90 -26 -123 -13 -12 4 -28 4 -36 0 -8 -5
-41 -11 -74 -15 -54 -6 -63 -4 -87 18 -15 13 -25 27 -21 31 3 3 -12 6 -35 6
-23 0 -50 4 -60 9 -117 60 -247 99 -292 88 -34 -9 -60 -3 -100 22 -26 17 -125
59 -153 66 -15 4 -29 11 -32 15 -3 5 -23 6 -44 3 -32 -4 -43 -1 -57 16 -10 11
-28 21 -39 21 -12 0 -31 9 -43 20 -12 11 -28 20 -35 20 -23 0 -107 40 -107 50
0 6 -8 10 -17 10 -10 0 -31 11 -47 25 -16 14 -36 25 -45 25 -9 0 -48 20 -86
45 -81 52 -137 74 -143 56 -2 -6 -8 -9 -13 -5 -5 3 -9 -1 -10 -8 -3 -56 -1
-108 5 -133 10 -43 57 -134 84 -163 6 -7 12 -17 12 -22 0 -4 9 -10 20 -13 10
-3 27 -21 37 -41 9 -20 20 -36 23 -36 4 0 18 -9 31 -21 13 -11 34 -29 47 -40
12 -10 28 -19 36 -19 8 0 53 -38 100 -85 48 -47 84 -85 81 -85 -2 0 0 -11 5
-25 17 -43 20 -166 6 -181 -27 -26 -87 -54 -119 -54 -18 0 -54 -7 -80 -15 -63
-19 -197 -28 -197 -13 0 6 -12 8 -33 4 -75 -15 -145 -18 -168 -6 -22 12 -34 5
-29 -15 1 -4 -11 -18 -26 -32 -21 -20 -35 -24 -65 -21 l-39 4 0 -1428 0 -1428
1230 0 c1120 0 1230 1 1230 16 0 28 30 81 53 93 17 9 22 20 21 49 -1 46 35 82
82 82 29 0 32 3 38 40 3 22 12 40 19 41 6 0 3 4 -8 9 -11 5 -14 9 -7 9 7 1 10
6 7 11 -3 6 2 13 12 17 23 8 57 43 42 43 -8 0 -9 4 0 13 6 8 8 17 4 20 -3 4
-1 7 6 7 7 0 10 4 7 8 -3 5 4 15 15 22 19 15 28 37 9 25 -6 -4 -6 4 1 22 7 20
7 29 -1 31 -7 3 -7 9 2 20 7 8 12 17 11 19 -7 9 -2 23 7 18 6 -3 10 -1 10 6 0
6 8 18 18 26 9 7 13 12 7 11 -10 -3 -15 4 -15 21 0 5 14 20 32 32 17 13 28 16
23 8 -7 -11 -6 -12 6 -2 11 9 18 10 27 1 6 -6 21 -12 34 -13 13 -1 29 -3 36
-4 6 0 12 -8 12 -17 0 -8 5 -12 10 -9 6 3 10 -1 10 -9 0 -9 7 -16 15 -16 8 0
15 -5 15 -11 0 -5 14 -15 30 -20 17 -6 30 -15 30 -20 0 -5 5 -9 11 -9 15 0 34
-22 35 -40 0 -8 4 -30 8 -48 5 -22 4 -38 -3 -45 -12 -12 -15 -78 -5 -114 7
-25 47 -42 84 -36 14 2 45 5 70 7 33 3 49 10 66 31 23 29 96 47 108 26 9 -15
202 -15 211 0 8 12 77 9 86 -4 3 -4 35 -15 70 -23 58 -14 70 -14 139 3 53 12
81 24 95 41 40 49 76 78 128 105 60 30 80 33 117 14 21 -11 27 -9 51 13 34 33
41 54 24 77 -8 10 -15 25 -15 34 0 20 -64 40 -102 32 -15 -3 -41 2 -59 11 -18
9 -42 16 -54 16 -12 0 -34 11 -49 25 -15 14 -33 24 -40 23 -15 -3 -86 56 -86
72 0 5 -4 10 -10 10 -5 0 -7 7 -4 15 4 8 12 15 20 15 8 0 14 4 14 9 0 5 7 17
16 25 8 9 11 16 6 16 -5 0 -8 14 -6 31 3 25 1 29 -14 25 -9 -3 -36 -8 -59 -11
-38 -4 -43 -3 -43 16 0 11 -4 17 -10 14 -9 -6 -14 8 -11 28 0 4 -3 7 -8 7 -6
0 -8 9 -6 20 2 11 0 20 -5 20 -4 0 -6 8 -3 19 3 10 0 22 -6 25 -7 4 -3 19 10
42 11 20 18 41 16 48 -2 6 3 16 12 23 11 9 12 12 3 13 -10 0 -10 3 0 14 7 8
17 12 21 9 5 -3 17 3 28 13 15 13 19 14 19 3 0 -12 2 -12 9 0 5 8 16 11 25 8
9 -4 15 -1 13 6 -1 7 6 11 16 9 9 -2 17 2 17 8 0 5 6 10 13 10 7 0 24 8 37 17
14 10 29 18 35 19 5 0 18 2 28 2 10 1 16 6 12 11 -7 12 29 33 40 23 5 -4 6 -2
3 3 -3 6 3 18 14 27 10 10 18 15 18 12 0 -3 7 1 15 8 37 33 46 39 56 32 8 -5
8 -1 0 13 -6 11 -7 24 -3 28 11 10 11 75 0 75 -5 0 -6 5 -2 11 3 6 0 15 -7 20
-11 7 -11 9 -1 9 7 0 11 4 7 9 -3 5 -1 12 5 16 5 3 10 15 10 26 0 11 4 18 8
15 4 -2 9 11 10 31 2 21 -3 40 -10 44 -12 7 -12 20 -5 121 1 20 0 35 -3 33 -3
-2 -14 4 -25 12 -16 12 -16 14 -3 10 10 -3 20 -2 23 3 4 6 -2 10 -13 10 -25 0
-62 33 -62 54 0 19 -18 39 -38 44 -8 1 -11 -3 -7 -10 4 -7 -1 -4 -10 7 -14 17
-17 18 -26 5 -9 -13 -10 -13 -7 0 1 8 -10 37 -26 63 -22 37 -27 56 -23 83 3
19 2 32 -3 29 -5 -3 -12 0 -16 6 -4 7 -3 9 3 6 14 -9 37 19 28 33 -3 5 1 10 9
10 9 0 16 5 16 11 0 6 -10 8 -22 5 -15 -4 -12 0 8 10 25 13 31 23 30 45 0 16
-4 29 -8 29 -4 0 -6 -12 -5 -27 1 -15 -2 -28 -8 -28 -5 0 -17 -4 -25 -9 -8 -5
-5 2 8 16 12 13 19 27 16 31 -10 10 17 38 29 30 5 -3 7 -1 3 5 -3 5 -3 12 1
15 5 2 3 3 -3 1 -6 -1 -17 2 -25 7 -12 8 -12 10 1 8 25 -2 40 1 39 9 -2 16 14
51 21 47 5 -3 7 3 5 12 -1 10 2 26 7 37 7 12 7 16 0 12 -5 -3 -12 1 -15 9 -4
8 -1 12 7 9 7 -3 12 4 12 20 0 18 -5 23 -18 21 -10 -2 -20 0 -23 4 -2 5 3 8
13 8 34 0 43 3 37 13 -4 6 -11 7 -17 4 -7 -4 -8 -2 -4 5 4 6 12 8 18 5 23 -14
-13 174 -43 225 -18 31 -47 61 -58 61 -5 0 -19 11 -32 25 -13 13 -29 25 -35
25 -10 0 -28 18 -87 90 -7 8 -11 16 -9 17 8 9 -1 23 -18 28 -11 3 -19 9 -19
13 1 4 1 20 0 35 -1 20 -5 26 -13 21 -7 -4 -5 2 5 13 10 12 16 30 13 44 -3 13
-5 26 -5 29 -1 2 -6 -1 -13 -8 -7 -7 -17 -12 -22 -12 -6 0 -5 4 2 8 14 9 6 42
-10 42 -5 0 -7 -4 -3 -9 3 -5 1 -12 -4 -16 -6 -3 -8 5 -5 20 3 16 0 25 -8 25
-7 0 -19 13 -25 28 -12 26 -62 86 -140 169 -18 19 -33 39 -33 44 0 4 -8 13
-19 18 -10 6 -26 26 -35 46 -16 33 -44 51 -32 20 7 -20 4 -19 -18 7 -15 17
-15 20 -3 15 9 -3 19 -2 22 4 4 5 1 8 -7 7 -7 -2 -12 5 -12 14 1 10 -2 16 -6
13 -5 -3 -11 1 -14 7 -3 7 -3 3 0 -9 3 -13 2 -23 -3 -23 -14 0 -15 61 -1 79
12 14 11 14 -4 2 -10 -7 -18 -12 -19 -10 0 2 -2 13 -4 24 -2 11 -9 21 -14 23
-6 2 -11 11 -11 20 0 15 2 15 10 2 7 -12 9 -10 7 7 0 12 -5 19 -9 16 -5 -2 -6
8 -2 23 4 17 3 25 -3 21 -6 -4 -8 3 -6 16 5 29 -61 220 -72 210 -5 -5 -3 0 4
10 7 9 9 17 3 17 -17 0 -23 31 -10 49 8 10 3 8 -11 -4 -14 -11 -21 -15 -18 -8
10 16 -2 43 -20 43 -8 0 -12 4 -9 9 7 11 -40 62 -50 53 -4 -4 -5 -2 -1 4 3 5
-9 26 -26 45 -18 19 -68 75 -112 124 -44 49 -91 101 -105 116 -14 15 -56 62
-95 105 -38 43 -79 88 -90 100 -11 12 -34 38 -52 57 -21 23 -28 37 -20 41 7 2
1 5 -13 5 -20 1 -29 -7 -43 -39z m757 -1058 c3 -5 -1 -9 -9 -9 -8 0 -12 4 -9
9 3 4 7 8 9 8 2 0 6 -4 9 -8z m8 -37 c11 -15 10 -25 -4 -25 -6 0 -8 3 -5 7 4
3 -1 12 -11 20 -13 10 -14 13 -2 11 8 -2 18 -7 22 -13z m678 -1195 c0 -5 -2
-10 -4 -10 -3 0 -8 5 -11 10 -3 6 -1 10 4 10 6 0 11 -4 11 -10z m20 -20 c0 -5
-5 -10 -11 -10 -5 0 -7 5 -4 10 3 6 8 10 11 10 2 0 4 -4 4 -10z m-4 -22 c5 4
2 -1 -5 -10 -15 -19 -36 -23 -45 -9 -4 5 4 7 16 4 23 -5 23 -5 3 11 -20 17
-20 17 1 7 12 -6 25 -7 30 -3z m-28 -55 c-6 -7 -14 -13 -18 -13 -3 0 -7 6 -7
13 0 7 8 13 18 13 13 0 15 -3 7 -13z m-28 -47 c0 -2 -6 -9 -14 -15 -11 -9 -16
-9 -22 0 -4 7 -3 9 4 5 6 -3 13 -2 17 4 6 10 15 14 15 6z m84 -384 c3 -5 -1
-9 -9 -9 -8 0 -12 4 -9 9 3 4 7 8 9 8 2 0 6 -4 9 -8z"/>
<path d="M3317 4405 c3 -8 9 -12 14 -9 12 7 11 11 -5 17 -10 4 -13 1 -9 -8z"/>
<path d="M1 3486 c-1 -29 2 -37 10 -29 8 8 8 19 1 40 -10 28 -10 28 -11 -11z"/>
<path d="M4991 2794 c0 -11 3 -14 6 -6 3 7 2 16 -1 19 -3 4 -6 -2 -5 -13z"/>
<path d="M2825 641 c-3 -5 -2 -12 3 -15 5 -3 9 1 9 9 0 17 -3 19 -12 6z"/>
</g>
</svg>
